<svg width="20" height="21" viewBox="0 0 20 21" fill="none" xmlns="http://www.w3.org/2000/svg">
<path d="M0 10.5C0 4.97715 4.47715 0.5 10 0.5C15.5228 0.5 20 4.97715 20 10.5C20 16.0228 15.5228 20.5 10 20.5C4.47715 20.5 0 16.0228 0 10.5Z" fill="#008043"/>
<g clip-path="url(#clip0_8_1474)">
<g clip-path="url(#clip1_8_1474)">
<path d="M9.3538 5.98654V7.25892C9.3538 7.41922 9.42393 7.5695 9.5141 7.67971L9.58423 7.74984C9.69444 7.85003 9.84472 7.91014 10.005 7.91014C10.3657 7.91014 10.6562 7.6196 10.6562 7.25892V5.98654C12.65 6.27708 14.2329 7.85003 14.5235 9.85379H13.2611C12.9004 9.85379 12.6099 10.1443 12.6099 10.505C12.6099 10.6653 12.68 10.8156 12.7702 10.9258L12.8403 10.9959C12.9505 11.0961 13.1008 11.1562 13.2611 11.1562H14.5235C14.4634 11.567 14.3331 11.9577 14.1728 12.3284L15.1647 13.3203C15.5254 12.659 15.7758 11.9377 15.856 11.1562H17.3588C17.7195 11.1562 18.01 10.8657 18.01 10.505C18.01 10.1443 17.7195 9.85379 17.3588 9.85379H15.856C15.5554 7.12868 13.3814 4.98466 10.6663 4.68409V3.15122C10.6663 2.79054 10.3757 2.5 10.015 2.5C9.65436 2.5 9.36382 2.79054 9.36382 3.15122V4.68409C8.59237 4.77426 7.861 5.0047 7.20978 5.35535L8.1816 6.32718C8.5523 6.15686 8.95305 6.04665 9.36382 5.98654H9.3538Z" fill="#A8F0C0"/>
<path d="M10.6562 15.0235V13.7511C10.6562 13.5908 10.5861 13.4405 10.4859 13.3303L10.4258 13.2702C10.3156 13.17 10.1653 13.0999 10.005 13.0999C9.64433 13.0999 9.35379 13.3904 9.35379 13.7511V15.0235C7.36005 14.7329 5.77708 13.16 5.48654 11.1562H6.7489C7.10958 11.1562 7.40013 10.8657 7.40013 10.505C7.40013 10.3447 7.32999 10.1944 7.22981 10.0842L7.16969 10.0241C7.05949 9.92392 6.9092 9.85379 6.7489 9.85379H5.48654C5.54665 9.44302 5.67689 9.05228 5.83719 8.68159L4.84534 7.68973C4.48466 8.35097 4.23419 9.07232 4.15404 9.85379H2.65122C2.29054 9.85379 2 10.1443 2 10.505C2 10.8657 2.29054 11.1562 2.65122 11.1562H4.15404C4.4546 13.8813 6.62868 16.0254 9.34377 16.3259V17.8588C9.34377 18.2195 9.63432 18.51 9.99499 18.51C10.3557 18.51 10.6462 18.2195 10.6462 17.8588V16.3259C11.4177 16.2358 12.149 16.0053 12.8003 15.6446L11.8284 14.6728C11.4577 14.8431 11.057 14.9533 10.6462 15.0135L10.6562 15.0235Z" fill="#A8F0C0"/>
<path d="M4.2943 3.87258C4.04383 3.62211 3.62304 3.62211 3.37258 3.87258C3.12211 4.12304 3.12211 4.54383 3.37258 4.7943L15.7157 17.1374C15.846 17.2677 16.0063 17.3278 16.1766 17.3278C16.3469 17.3278 16.5072 17.2677 16.6374 17.1374C16.8879 16.887 16.8879 16.4662 16.6374 16.2157L4.2943 3.87258Z" fill="#A8F0C0"/>
</g>
</g>
<defs>
<clipPath id="clip0_8_1474">
<rect width="16" height="16" fill="white" transform="translate(2 2.5)"/>
</clipPath>
<clipPath id="clip1_8_1474">
<rect width="16" height="16" fill="white" transform="translate(2 2.5)"/>
</clipPath>
</defs>
</svg>
