<svg width="16" height="16" viewBox="0 0 16 16" fill="none" xmlns="http://www.w3.org/2000/svg">
<g id="Copy" clip-path="url(#clip0_11775_93)">
<path id="Icon" d="M3.33337 9.99999H2.66671C2.31309 9.99999 1.97395 9.85952 1.7239 9.60947C1.47385 9.35942 1.33337 9.02028 1.33337 8.66666V2.66666C1.33337 2.31304 1.47385 1.9739 1.7239 1.72385C1.97395 1.4738 2.31309 1.33333 2.66671 1.33333H8.66671C9.02033 1.33333 9.35947 1.4738 9.60952 1.72385C9.85956 1.9739 10 2.31304 10 2.66666V3.33333M7.33337 5.99999H13.3334C14.0698 5.99999 14.6667 6.59695 14.6667 7.33333V13.3333C14.6667 14.0697 14.0698 14.6667 13.3334 14.6667H7.33337C6.59699 14.6667 6.00004 14.0697 6.00004 13.3333V7.33333C6.00004 6.59695 6.59699 5.99999 7.33337 5.99999Z" stroke="white" stroke-opacity="0.3" stroke-width="1.6" stroke-linecap="round" stroke-linejoin="round"/>
</g>
<defs>
<clipPath id="clip0_11775_93">
<rect width="16" height="16" fill="white"/>
</clipPath>
</defs>
</svg>
