<svg width="15" height="15" viewBox="0 0 15 15" fill="none" xmlns="http://www.w3.org/2000/svg">
<g id="Icon" clip-path="url(#clip0_11776_188)">
<path id="Vector" d="M10.9383 7.96378C11.4983 7.96378 12.137 7.71003 12.802 6.94878C14.0008 5.56628 14.9983 2.77503 13.7645 1.70753C13.1958 1.21753 12.277 1.20003 11.1658 1.65503C10.247 2.03128 9.32825 2.68753 8.707 3.39628C7.4645 4.83128 7.9895 5.93378 8.55825 6.59003L7.66575 7.52628L6.782 6.60753C7.01825 6.29253 7.15825 5.91628 7.19325 5.50503C7.22825 4.95378 7.05325 4.41128 6.68575 3.99128L4.04325 0.972534L0.333252 4.15753L2.97575 7.18503C3.34325 7.60503 3.85075 7.85878 4.402 7.89378C4.44575 7.89378 4.49825 7.89378 4.55075 7.89378C4.927 7.89378 5.2945 7.79753 5.60075 7.60503L6.502 8.74253L2.967 12.4438C2.7745 12.645 2.67825 12.9075 2.687 13.1963C2.7045 13.5113 2.85325 13.8263 3.107 14.045C3.3345 14.2375 3.6145 14.3513 3.90325 14.3513C3.93825 14.3513 3.97325 14.3513 4.00825 14.3513C4.28825 14.325 4.542 14.1938 4.717 13.975L7.6745 10.23L10.5445 13.8525C10.7108 14.0625 10.9558 14.1938 11.2358 14.22C11.2708 14.22 11.3058 14.22 11.3408 14.22C11.6295 14.22 11.9095 14.1063 12.137 13.9138C12.3908 13.695 12.5483 13.38 12.557 13.065C12.5658 12.785 12.4695 12.5225 12.2858 12.3213L8.847 8.73378L9.757 7.58753C10.0895 7.78878 10.492 7.95503 10.947 7.95503L10.9383 7.96378ZM3.62325 6.61628L1.55825 4.24503L3.95575 2.18878L6.0295 4.56003C6.24825 4.80503 6.35325 5.12003 6.327 5.44378C6.3095 5.75878 6.1695 6.03878 5.95075 6.24003L5.79325 6.38003L5.347 6.73878C4.8395 7.18503 4.0695 7.13253 3.62325 6.62503V6.61628ZM9.372 3.96503C9.897 3.36128 10.7108 2.78378 11.507 2.46003C11.9358 2.28503 12.3208 2.18878 12.6358 2.18878C12.8808 2.18878 13.082 2.24128 13.2133 2.35503C13.852 2.90628 13.2833 5.09378 12.1633 6.38003C11.3583 7.30753 10.6758 7.32503 9.66075 6.45003C8.64575 5.56628 8.567 4.89253 9.38075 3.96503H9.372ZM4.0345 13.4325C4.0345 13.4325 3.97325 13.4763 3.92075 13.485C3.85075 13.485 3.74575 13.4588 3.67575 13.3975C3.60575 13.3363 3.55325 13.2488 3.55325 13.1613C3.55325 13.1088 3.562 13.0738 3.58825 13.0475L7.92825 8.50628L4.0345 13.4325ZM11.6558 12.925C11.6558 12.925 11.6908 12.9863 11.6908 13.03C11.6908 13.1088 11.6383 13.1963 11.5595 13.2663C11.4808 13.3363 11.3845 13.3713 11.3058 13.3625C11.262 13.3625 11.227 13.345 11.2095 13.3188L8.217 9.53003L8.29575 9.42503L11.6558 12.925Z" fill="white" fill-opacity="0.3"/>
<path id="Vector_2" d="M3.25581 4.09631C3.09831 3.91256 2.82706 3.89506 2.64331 4.05256C2.45956 4.21006 2.44206 4.48131 2.59956 4.66506L3.84206 6.10881C3.92956 6.20506 4.05206 6.25756 4.16581 6.25756C4.26206 6.25756 4.36706 6.22256 4.44581 6.15256C4.62956 5.99506 4.64706 5.72381 4.48956 5.54006L3.24706 4.09631H3.25581Z" fill="white" fill-opacity="0.3"/>
<path id="Vector_3" d="M5.56581 4.65627L4.32331 3.21252C4.16581 3.02877 3.89456 3.01127 3.71081 3.16877C3.52706 3.32627 3.50956 3.59752 3.66706 3.78127L4.90956 5.22502C4.99706 5.32127 5.11956 5.37377 5.23331 5.37377C5.32956 5.37377 5.43456 5.33877 5.51331 5.26877C5.69706 5.11127 5.71456 4.84002 5.55706 4.65627H5.56581Z" fill="white" fill-opacity="0.3"/>
</g>
<defs>
<clipPath id="clip0_11776_188">
<rect width="14" height="13.3787" fill="white" transform="translate(0.333252 0.972534)"/>
</clipPath>
</defs>
</svg>
