<svg width="16" height="16" viewBox="0 0 16 16" fill="none" xmlns="http://www.w3.org/2000/svg">
<g id="Dollar sign" clip-path="url(#clip0_11775_734)">
<path id="Icon" d="M8 0.666672V15.3333M11.3333 3.33334H6.33333C5.71449 3.33334 5.121 3.57917 4.68342 4.01676C4.24583 4.45434 4 5.04783 4 5.66667C4 6.28551 4.24583 6.879 4.68342 7.31659C5.121 7.75417 5.71449 8.00001 6.33333 8.00001H9.66667C10.2855 8.00001 10.879 8.24584 11.3166 8.68342C11.7542 9.12101 12 9.7145 12 10.3333C12 10.9522 11.7542 11.5457 11.3166 11.9833C10.879 12.4208 10.2855 12.6667 9.66667 12.6667H4" stroke="#F5F5F5" stroke-width="1.6" stroke-linecap="round" stroke-linejoin="round"/>
</g>
<defs>
<clipPath id="clip0_11775_734">
<rect width="16" height="16" fill="white"/>
</clipPath>
</defs>
</svg>
