<svg width="14" height="16" viewBox="0 0 14 16" fill="none" xmlns="http://www.w3.org/2000/svg">
<g id="Group">
<path id="Vector" d="M13.4134 14.3383C14.0256 14.4675 14.0246 15.5531 13.3189 15.4952L0.681975 15.5C0.0533594 15.4499 -0.0739063 14.5677 0.537355 14.3816C0.985677 14.2457 3.01711 14.427 3.13088 14.3228C3.16944 14.0461 3.36516 13.8321 3.53292 13.6181C4.48645 12.4013 5.52 11.228 6.51788 10.0469C6.5497 9.84539 6.48896 9.93217 6.38579 9.8936C5.92204 9.71909 3.81638 9.20521 3.38444 9.21967C2.51865 9.24956 1.37808 10.7208 0.513251 10.2677C0.0832475 10.0421 0.0408256 9.41057 0.304998 9.04034L2.7539 7.34347C3.78649 7.03012 4.87981 7.87181 5.82177 7.95762C5.93072 7.96726 6.01556 7.99618 6.08402 7.88049L6.80712 5.66202C5.77839 5.47305 4.59636 5.47305 3.58691 5.26576C2.43477 5.02954 2.6893 3.77521 3.58402 3.73953C5.79092 3.96514 8.2996 3.8398 10.3735 4.74512C10.8227 4.94181 11.6201 5.82881 11.9652 6.23857C12.5013 6.87393 12.9872 7.29719 12.8715 8.20829C12.8233 8.59009 11.6741 10.7555 11.3655 10.8471C11.057 10.9387 10.681 10.9059 10.4679 10.6283C9.99744 10.0151 10.9693 8.81666 11.0503 8.12345L10.0842 7.01084C9.53851 8.11188 9.04391 9.43757 8.36998 10.4557C7.48587 11.791 6.14862 12.9827 5.26258 14.3383H13.4095H13.4134Z" fill="#F5F5F5"/>
<path id="Vector_2" d="M10.2008 4.15021C11.2088 4.15021 12.0259 3.33308 12.0259 2.32511C12.0259 1.31713 11.2088 0.5 10.2008 0.5C9.19286 0.5 8.37573 1.31713 8.37573 2.32511C8.37573 3.33308 9.19286 4.15021 10.2008 4.15021Z" fill="#F5F5F5"/>
</g>
</svg>
