<svg width="17" height="16" viewBox="0 0 17 16" fill="none" xmlns="http://www.w3.org/2000/svg">
<g id="Globe">
<path id="Icon" d="M15.1667 8.00004C15.1667 11.6819 12.1819 14.6667 8.50004 14.6667M15.1667 8.00004C15.1667 4.31814 12.1819 1.33337 8.50004 1.33337M15.1667 8.00004H1.83337M8.50004 14.6667C4.81814 14.6667 1.83337 11.6819 1.83337 8.00004M8.50004 14.6667C10.1676 12.8411 11.1152 10.472 11.1667 8.00004C11.1152 5.52806 10.1676 3.15894 8.50004 1.33337M8.50004 14.6667C6.83252 12.8411 5.88487 10.472 5.83337 8.00004C5.88487 5.52806 6.83252 3.15894 8.50004 1.33337M1.83337 8.00004C1.83337 4.31814 4.81814 1.33337 8.50004 1.33337" stroke="#F5F5F5" stroke-width="1.6" stroke-linecap="round" stroke-linejoin="round"/>
</g>
</svg>
